<?xml version="1.0" encoding="UTF-8"?><svg id="a" xmlns="http://www.w3.org/2000/svg" xmlns:xlink="http://www.w3.org/1999/xlink" viewBox="0 0 129 66" width="129" height="66"><defs><linearGradient id="b" x1="120.59" y1="65.34" x2="70.62" y2="30.75" gradientTransform="translate(0 66.87) scale(1 -1)" gradientUnits="userSpaceOnUse"><stop offset="0" stop-color="#ffa163"/><stop offset=".14" stop-color="#ff7f65"/><stop offset=".39" stop-color="#ff4c55"/><stop offset=".74" stop-color="#ff2378"/><stop offset="1" stop-color="#ff0289"/></linearGradient><linearGradient id="c" x1="131.2" y1="50.03" x2="81.22" y2="15.43" xlink:href="#b"/><linearGradient id="d" x1="100.48" y1="52.55" x2="83.31" y2="41.85" gradientTransform="translate(0 66.87) scale(1 -1)" gradientUnits="userSpaceOnUse"><stop offset="0" stop-color="#ff4a57"/><stop offset=".19" stop-color="#fd4759"/><stop offset=".37" stop-color="#f83f5f"/><stop offset=".5" stop-color="#f33764"/><stop offset=".8" stop-color="#c42149"/><stop offset="1" stop-color="#a21236"/></linearGradient><linearGradient id="e" x1="101.51" y1="51.35" x2="118.06" y2="58.08" gradientTransform="translate(0 66.87) scale(1 -1)" gradientUnits="userSpaceOnUse"><stop offset="0" stop-color="#ff4b54"/><stop offset=".23" stop-color="#fb4a51"/><stop offset=".46" stop-color="#ef4649"/><stop offset=".69" stop-color="#dc413f"/><stop offset=".92" stop-color="#c13b35"/><stop offset="1" stop-color="#b63931"/></linearGradient><linearGradient id="f" x1="106.64" y1="34.67" x2="106.64" y2="21.24" gradientTransform="translate(0 66.87) scale(1 -1)" gradientUnits="userSpaceOnUse"><stop offset="0" stop-color="#ff4262"/><stop offset=".18" stop-color="#fb4061"/><stop offset=".37" stop-color="#ef3b5a"/><stop offset=".56" stop-color="#da3252"/><stop offset=".75" stop-color="#be2645"/><stop offset=".94" stop-color="#991735"/><stop offset="1" stop-color="#8c112f"/></linearGradient><linearGradient id="g" x1="109.33" y1="36.84" x2="109.33" y2="49.42" gradientTransform="translate(0 66.87) scale(1 -1)" gradientUnits="userSpaceOnUse"><stop offset="0" stop-color="#ff455e"/><stop offset=".24" stop-color="#fb435b"/><stop offset=".48" stop-color="#ef4053"/><stop offset=".72" stop-color="#dc3844"/><stop offset=".96" stop-color="#c12e31"/><stop offset="1" stop-color="#bc2d2e"/></linearGradient><linearGradient id="h" x1="100.04" y1="31.82" x2="103.94" y2="39.7" gradientTransform="translate(0 66.87) scale(1 -1)" gradientUnits="userSpaceOnUse"><stop offset="0" stop-color="#fb3668"/><stop offset=".34" stop-color="#f83665"/><stop offset=".68" stop-color="#ee355c"/><stop offset="1" stop-color="#df344d"/></linearGradient><linearGradient id="i" x1="136.83" y1="55.11" x2="73.75" y2="11.44" xlink:href="#b"/><linearGradient id="j" x1="89.5" y1="33.15" x2="89.5" y2="12.12" gradientTransform="translate(0 66.87) scale(1 -1)" gradientUnits="userSpaceOnUse"><stop offset="0" stop-color="#ff2c73"/><stop offset=".2" stop-color="#fb2a70"/><stop offset=".42" stop-color="#ef2568"/><stop offset=".6" stop-color="#da1c5b"/><stop offset=".8" stop-color="#be1048"/></linearGradient><linearGradient id="k" x1="97.6" y1="34.12" x2="97.6" y2="43.3" gradientTransform="translate(0 66.87) scale(1 -1)" gradientUnits="userSpaceOnUse"><stop offset="0" stop-color="#ff366c"/><stop offset=".23" stop-color="#fb3569"/><stop offset=".47" stop-color="#f03161"/><stop offset=".71" stop-color="#dc2b53"/><stop offset=".94" stop-color="#c2223f"/><stop offset="1" stop-color="#ba203a"/></linearGradient></defs><path d="m117.81,6.31c-2.04,2.95-5.77,4.98-12.3,6.24-1.22.24-2.63.42-4.13.61-6.52.79-14.84,1.44-17.9,4.94-3.87,4.44.74,9.31,4.4,9.02-3.73-1.46-2.91-5.5.68-6.87,2.33-.89,7.85-1.14,13.21-1.69,2.93-.31,5.81-.7,8.09-1.35,6.44-1.82,9.84-6.55,7.94-10.9Z" style="fill:url(#b);"/><path d="m109.19,35.58c.23-1.56.45-3.04.68-4.45.76-4.76,1.49-8.76,2.06-12.5-4.82.28-6.67,2.41-7.21,4.79-.16.69-.42,2.31-.71,4.32-1.22.21-2.69.47-4.95.88,0-.04.01-.08.02-.12-.03.06-.07.11-.11.16.02.45-.04.91-.24,1.32.04.44-.05.88-.22,1.29.06.06.12.12.17.18,1.82-.37,3.5-.68,4.96-.94-.07.56-.14,1.12-.2,1.69-.17,1.51-.33,3.04-.43,4.43-.37,4.75,1.54,8.26,7.29,8.24-1.88-1.58-1.8-4.61-1.12-9.29Z" style="fill:url(#c);"/><path d="m87.88,27.13c-4.26-1.05-5.31-5.25-2.72-8.13,2.49-2.75,9.09-2.35,16.42-2.96l.19,2.53c-5.36.56-10.89.81-13.21,1.69-3.6,1.37-4.41,5.41-.68,6.87Z" style="fill:url(#d);"/><path d="m117.81,6.31c-.59,6.76-7.45,8.88-15.19,9.63-.35.03-.69.06-1.03.09l-.21-2.87c1.5-.18,2.91-.37,4.13-.61,6.53-1.26,10.26-3.29,12.3-6.24Z" style="fill:url(#e);"/><path d="m110.3,44.87c-5.75.02-7.66-3.49-7.29-8.24.1-1.39.26-2.92.43-4.43l3.3-.55c-.07.94-.14,1.91-.25,2.9-.8,7.34-.59,7.99,3.81,10.32Z" style="fill:url(#f);"/><path d="m111.92,18.63c-.57,3.74-1.3,7.74-2.06,12.5l-3.12.52c.41-5.99.36-10.76,5.18-13.02Z" style="fill:url(#g);"/><path d="m98.75,30.2c0,.37-.08.74-.22,1.09.05.05.11.11.16.17l4.96-.94,3.31-1.96-8.21,1.65Z" style="fill:url(#h);"/><path d="m43.83,46.69c.85-.34,1.75-.52,2.67-.53,2.46.08,4.92.39,7.33.91l.63-1.74c-1.31-.36-2.63-.66-3.97-.89-.83-.17-1.68-.26-2.53-.26-2.57-.14-5.13.28-7.52,1.24-5.53,2.68-4.67,7.76,1.86,10.11,2.67,1,5.22,2.46,4.96,3.88-.41,2.34-1.17,3.58-4.57,3.77-2.7,0-8.37-.06-10.79-.06l-.39,1.7h9.96c2.72.09,5.43-.48,7.89-1.67,2.02-1.02,3.07-2.18,3.45-4.07.22-1.21-.07-2.45-.8-3.44-1.11-1.62-4.27-2.35-7.21-3.87-2.32-1.16-3.77-4.07-.96-5.09Z" style="fill:#0b58ad;"/><path d="m28.62,44.95l-3.66,17.48c-.31,1.28-.07,2.42,1.73,2.42h2.85c1.39-6.76,2.81-13.16,4.22-19.9h-5.14Z" style="fill:#0b58ad;"/><polygon points="120.86 61.36 120.97 64.64 122.59 64.7 122.54 64.7 124.09 64.87 124.38 61.66 122.78 61.56 120.86 61.36" style="fill:#0b58ad;"/><path d="m124.64,42.88c-3.22-.37-3.09-.37-3.84-.37l.17,2.24c.09,1.22.65,12.41.55,13.83l2.7.31-.03-.04c.16-.78,1.91-10.67,2.55-12.87l.74-2.78c-.59,0-.9-.16-2.85-.32Z" style="fill:#0b58ad;"/><path d="m20.14,45.71c-1.09-.58-2.29-.96-3.52-1.11-1.79-.28-3.59-.41-5.4-.39H3.96L.12,61.96c-.08.25-.12.51-.11.78.04,1.22,1.06,2.17,2.28,2.13h4.07c1.92,0,3.84-.12,5.75-.39,1.43-.21,2.82-.62,4.13-1.21,1.88-.81,3.56-2.03,4.92-3.56,1.24-1.51,2.1-3.3,2.5-5.21.43-1.72.35-3.52-.24-5.19-.65-1.54-1.81-2.81-3.28-3.6Zm-2,8.81c-.48,2.12-1.93,5.81-3.65,7-1.92,1.23-4.17,1.84-6.45,1.75h-2.67l3.68-17.52v.05h2.53c2.7,0,4.68.58,5.86,1.71,1.18,1.13,1.17,4.89.69,7.01Z" style="fill:#0b58ad;"/><path d="m114.81,45.77h-16.22l-.03.06-.26,2.04h11.31l-11.34,10.55c-2.71,2.57-2.76,3.56-2.97,6.5h18.15v-1.85h-13.1l12.21-11.28c2.12-1.82,2.85-3.83,2.24-6.01Z" style="fill:#0b58ad;"/><path d="m92.53,45.97c-.24,5.38-2.78,13.24-6.53,15.28-1.68,1.28-6.25,1.39-7.5-.4-.61-.83-.14-2.83.24-4.71l1.85-9.99.11-.03c.18-.73.42-1.95-2.15-2.04-3.2-.14-5.29-.14-8.89-.14-3.63-.12-7.19.93-10.18,2.99-2.64,1.65-4.48,4.31-5.09,7.37-.65,3.15.01,5.74,2.04,7.66s5.01,2.86,8.99,2.86c.94,0,1.87-.07,2.8-.22.37-.03,2.07-.48,2.52-.57l.26-1.97h-.19c-1.27.33-2.57.54-3.89.63-9.46-.31-8.45-11.44-3.77-14.88,1.97-1.25,4.27-1.9,6.6-1.86,1.8-.07,3.61-.03,5.4.11l-1.95,10.18c-.51,2.82-.23,4.93,1.02,6.39,1.25,1.46,2.92,2.2,5.81,2.2,3.54,0,6.01-.68,8.05-2.46l-.16.85c.1-.04.2-.07.3-.07.08,0,.09.14.04.35.07-.03.13-.04.2-.05.58-1.01,1.3-1.99,1.92-2.23.56-.82,1.17-1.46,1.67-1.46.03,0,.05.02.06.05.04-.12.09-.24.14-.34.08-.2.19-.39.29-.58.27-.48.54-.9.87-1.35.16-.22.34-.45.52-.68l1.97-10.88h-3.38Z" style="fill:#0b58ad;"/><path d="m98.63,35.2c.06-.63.13-1.28.21-1.92.05-.66.1-1.32.19-2.01-.01,0-.02,0-.03,0,.44-4.17.83-8.1,1.21-11.24-5.2.39-7.2,3.33-7.79,6.63-.28,1.58-.69,5.88-1.15,10.67-.51,5.25-1.08,11.08-1.62,14.54-1.02,6.61-2.86,10.64-5.64,12.54,2.2.28,7.65-.08,10.59-7.27,1.78-4.37,3.01-13.27,3.98-21.92.02,0,.04,0,.06-.01Z" style="fill:url(#i);"/><path d="m91.26,37.33l3.74-2.92c-.2,2.7-.4,5.85-.74,9.57-1.32,14.77-3.77,17.43-10.26,20.43,2.78-1.9,4.62-5.93,5.64-12.54.54-3.46,1.11-9.28,1.62-14.54Z" style="fill:url(#j);"/><path d="m100.2,20.03c-.37,3.14-.76,7.08-1.21,11.24l-4,3.14c.59-8.02,1.18-11.95,5.21-14.38Z" style="fill:url(#k);"/><path d="m19.22,1.47c2.15,0,4.28.31,6.34.94,1.82.55,3.54,1.4,5.09,2.51,2.91,2.14,4.51,4.91,4.51,7.85,0,3.29-2.04,6.42-5.6,8.58l-1.18.73.69,1.23c.36.62.55,1.32.55,2.04-.05,1.44-.77,2.78-1.94,3.62-1.47,1.1-3.25,1.68-5.09,1.66-1.83.02-3.62-.56-5.09-1.66-1.17-.85-1.88-2.18-1.93-3.62v-.28l.09-1.25-1.22-.27c-3.02-.64-5.81-2.08-8.07-4.17-1.88-1.69-2.98-4.07-3.05-6.59,0-2.93,1.59-5.71,4.5-7.85,1.54-1.12,3.26-1.97,5.09-2.51,2.05-.63,4.18-.94,6.32-.94m0-1.47C9.57,0,1.77,5.72,1.77,12.76c0,5.73,5.14,10.57,12.21,12.21v.4c0,3.72,3.82,6.75,8.53,6.75s8.52-3.05,8.52-6.75c0-.98-.25-1.95-.74-2.8,3.85-2.34,6.3-5.86,6.3-9.82,0-7.03-7.79-12.75-17.36-12.75Zm13.08,34.72c1.83,0,3.38,1.09,3.38,2.37s-1.55,2.37-3.38,2.37-3.37-1.09-3.37-2.37,1.54-2.37,3.37-2.37m0-1.46c-2.67,0-4.82,1.71-4.82,3.83s2.16,3.8,4.82,3.8,4.83-1.71,4.83-3.83-2.16-3.8-4.83-3.8Z" style="fill:#f4a62f;"/></svg>