<?xml version="1.0" encoding="UTF-8"?><svg xmlns="http://www.w3.org/2000/svg" width="245" height="92" xmlns:xlink="http://www.w3.org/1999/xlink" viewBox="0 0 245 92"><defs><linearGradient id="linear-gradient" x1="169.34" y1="1983.27" x2="99.16" y2="2031.85" gradientTransform="translate(0 -1981.13)" gradientUnits="userSpaceOnUse"><stop offset="0" stop-color="#ffa163"/><stop offset=".14" stop-color="#ff7f65"/><stop offset=".39" stop-color="#ff4c55"/><stop offset=".74" stop-color="#ff2378"/><stop offset="1" stop-color="#ff0289"/></linearGradient><linearGradient id="linear-gradient-2" x1="184.24" y1="2004.78" x2="114.05" y2="2053.37" xlink:href="#linear-gradient"/><linearGradient id="linear-gradient-3" x1="141.1" y1="2001.24" x2="116.98" y2="2016.26" gradientTransform="translate(0 -1981.13)" gradientUnits="userSpaceOnUse"><stop offset="0" stop-color="#ff4a57"/><stop offset=".19" stop-color="#fd4759"/><stop offset=".37" stop-color="#f83f5f"/><stop offset=".5" stop-color="#f33764"/><stop offset=".8" stop-color="#c42149"/><stop offset="1" stop-color="#a21236"/></linearGradient><linearGradient id="linear-gradient-4" x1="142.54" y1="2002.92" x2="165.79" y2="1993.47" gradientTransform="translate(0 -1981.13)" gradientUnits="userSpaceOnUse"><stop offset="0" stop-color="#ff4b54"/><stop offset=".23" stop-color="#fb4a51"/><stop offset=".46" stop-color="#ef4649"/><stop offset=".69" stop-color="#dc413f"/><stop offset=".92" stop-color="#c13b35"/><stop offset="1" stop-color="#b63931"/></linearGradient><linearGradient id="linear-gradient-5" x1="149.74" y1="2026.35" x2="149.74" y2="2045.21" gradientTransform="translate(0 -1981.13)" gradientUnits="userSpaceOnUse"><stop offset="0" stop-color="#ff4262"/><stop offset=".18" stop-color="#fb4061"/><stop offset=".37" stop-color="#ef3b5a"/><stop offset=".56" stop-color="#da3252"/><stop offset=".75" stop-color="#be2645"/><stop offset=".94" stop-color="#991735"/><stop offset="1" stop-color="#8c112f"/></linearGradient><linearGradient id="linear-gradient-6" x1="153.53" y1="2023.3" x2="153.53" y2="2005.64" gradientTransform="translate(0 -1981.13)" gradientUnits="userSpaceOnUse"><stop offset="0" stop-color="#ff455e"/><stop offset=".24" stop-color="#fb435b"/><stop offset=".48" stop-color="#ef4053"/><stop offset=".72" stop-color="#dc3844"/><stop offset=".96" stop-color="#c12e31"/><stop offset="1" stop-color="#bc2d2e"/></linearGradient><linearGradient id="linear-gradient-7" x1="140.49" y1="2030.36" x2="145.97" y2="2019.29" gradientTransform="translate(0 -1981.13)" gradientUnits="userSpaceOnUse"><stop offset="0" stop-color="#fb3668"/><stop offset=".34" stop-color="#f83665"/><stop offset=".68" stop-color="#ee355c"/><stop offset="1" stop-color="#df344d"/></linearGradient><linearGradient id="linear-gradient-8" x1="192.15" y1="1997.65" x2="103.56" y2="2058.98" xlink:href="#linear-gradient"/><linearGradient id="linear-gradient-9" x1="125.68" y1="2028.49" x2="125.68" y2="2058.02" gradientTransform="translate(0 -1981.13)" gradientUnits="userSpaceOnUse"><stop offset="0" stop-color="#ff2c73"/><stop offset=".2" stop-color="#fb2a70"/><stop offset=".42" stop-color="#ef2568"/><stop offset=".6" stop-color="#da1c5b"/><stop offset=".8" stop-color="#be1048"/></linearGradient><linearGradient id="linear-gradient-10" x1="137.05" y1="2027.12" x2="137.05" y2="2014.23" gradientTransform="translate(0 -1981.13)" gradientUnits="userSpaceOnUse"><stop offset="0" stop-color="#ff366c"/><stop offset=".23" stop-color="#fb3569"/><stop offset=".47" stop-color="#f03161"/><stop offset=".71" stop-color="#dc2b53"/><stop offset=".94" stop-color="#c2223f"/><stop offset="1" stop-color="#ba203a"/></linearGradient></defs><g id="Layer_1"><path d="M203.09,90.21h-2.13v-9.35c0-.8-.37-1.56-1.02-2.04-.67-.48-1.48-.74-2.3-.72-.93-.04-1.84.33-2.47,1.02-.6.65-.94,1.51-.93,2.39.02.42.07.84.15,1.25.09.5.15,1.02.15,1.53v.96s0-.26.12-.73.13-.84.15-1.08c.19-.87.55-1.69,1.07-2.41.43-.73,1.2-1.19,2.04-1.23.6,0,1.18.23,1.61.65.45.4.7.98.68,1.58,0,.59-.25,1.16-.68,1.56-.42.43-1.01.67-1.61.66-.58,0-1.13-.22-1.55-.61-.69,2.12-1.03,4.33-1.02,6.55h-2.13v-2.19c-.02-1.19-.21-2.38-.56-3.52-.33-.97-.52-1.98-.57-3-.05-1.48.59-2.89,1.72-3.84,2.2-1.77,5.29-1.88,7.61-.28,1.11.83,1.73,2.15,1.68,3.54l-.03,9.29ZM198.94,82.05c0-.28-.11-.56-.32-.75-.2-.21-.47-.32-.75-.32-.28,0-.55.11-.73.32-.2.2-.31.47-.3.75,0,.56.46,1.02,1.02,1.02.28,0,.55-.1.75-.3.21-.18.33-.45.33-.73h0Z" style="fill:#aaa;"/><path d="M205.6,68.69c-.42,2.17-1.17,3.67-2.28,4.5-1.44.93-3.15,1.37-4.86,1.25h-.96v-1.13c.92-.07,1.48-.4,1.68-1.02-1.01-.14-1.76-1.02-1.75-2.04,0-.52.21-1.02.59-1.38.38-.36.88-.56,1.41-.55.54-.03,1.07.18,1.46.57.36.4.55.92.53,1.46-.1,1.11-.65,2.13-1.51,2.84,1.07-.19,2.04-.76,2.74-1.59.71-.83,1.12-1.87,1.17-2.97l1.78.04ZM200.26,70.37c0-.24-.09-.47-.25-.64-.35-.35-.92-.35-1.27,0-.35.35-.35.92,0,1.27.35.35.91.35,1.26,0,.16-.17.26-.4.25-.63Z" style="fill:#aaa;"/><path d="M217.95,83.72c.08.71-.19,1.41-.72,1.89.88.42,1.42,1.33,1.38,2.3.02,1.41-1.11,2.57-2.53,2.59-.01,0-.03,0-.04,0-1.3.01-2.4-.94-2.58-2.23-.72.37-1.25.64-1.57.83-.5.29-.94.68-1.3,1.13h-2.17v-8.84c-.19.04-.39.06-.58.06-.7.01-1.37-.26-1.85-.76-.49-.5-.76-1.17-.75-1.88,0-1.42,1.16-2.57,2.59-2.57,0,0,.01,0,.02,0,.73-.03,1.43.26,1.94.78.53.54.81,1.28.77,2.04v8.72c.78-.49,1.61-.89,2.48-1.2.88-.32,1.68-.81,2.36-1.45.36-.47.53-1.05.48-1.64v-6.93h2.13l-.04,7.15ZM208.96,78.84c0-.31-.12-.6-.35-.82-.21-.23-.51-.35-.83-.35-.64.06-1.12.63-1.06,1.28.05.56.5,1.01,1.06,1.06.31,0,.61-.12.83-.35.22-.22.35-.51.35-.83h0ZM217.11,87.89c0-.31-.12-.6-.35-.82-.46-.45-1.19-.45-1.64,0-.23.21-.35.51-.35.82-.01.31.12.6.35.81.46.45,1.19.45,1.64,0,.23-.2.36-.48.36-.78v-.02Z" style="fill:#aaa;"/><path d="M232.97,90.21h-2.14v-7.62c0-.61-.13-.92-.38-.92s-.45.29-.79.86l-4.45,7.68h-2.04v-8.82c-.19.04-.39.06-.58.06-.7.01-1.37-.26-1.85-.76-.49-.5-.76-1.17-.75-1.88,0-1.42,1.16-2.58,2.59-2.57.04,0,.08,0,.12,0,.73-.02,1.43.26,1.94.78.53.54.81,1.28.77,2.04v5.1c-.06,1.22-.2,2.43-.41,3.64.21-.95.55-1.86,1.02-2.71l1.89-3.26c.41-.68.77-1.07,1.1-1.16-.43-.5-.68-1.13-.69-1.79-.01-1.42,1.13-2.59,2.56-2.6.02,0,.03,0,.05,0,.7-.02,1.37.25,1.85.75.49.48.77,1.15.75,1.84,0,.79-.35,1.54-.96,2.04.3.57.45,1.21.44,1.85l-.02,7.44ZM223.8,78.84c0-.31-.12-.6-.35-.82-.21-.2-.49-.31-.77-.31-.64.06-1.12.63-1.06,1.28.05.56.5,1.01,1.06,1.06.31,0,.61-.12.83-.35.22-.23.34-.55.32-.87h-.02ZM232.03,78.84c0-.31-.12-.6-.35-.82-.21-.23-.51-.35-.83-.35-.64.06-1.12.63-1.06,1.28.05.56.5,1.01,1.06,1.06.31,0,.61-.12.83-.35.23-.21.36-.51.37-.83h-.02Z" style="fill:#aaa;"/><path d="M244.51,90.21h-2.13v-9.96c.02-.59-.22-1.16-.65-1.56-.5-.42-1.13-.64-1.78-.6-.7-.02-1.37.25-1.85.75-.49.51-.76,1.19-.75,1.9h-2.04c0-1.23.49-2.41,1.36-3.28.89-.84,2.09-1.27,3.31-1.21,1.16-.03,2.3.33,3.24,1.02.91.71,1.4,1.82,1.32,2.97l-.02,9.98Z" style="fill:#aaa;"/></g><g id="Layer_2"><path d="M165.44,8.86c-2.86,4.14-8.1,6.99-17.27,8.76-1.71.34-3.69.59-5.8.86-9.16,1.11-20.84,2.02-25.14,6.94-5.43,6.24,1.04,13.07,6.18,12.67-5.24-2.05-4.09-7.72.95-9.65,3.27-1.25,11.02-1.6,18.55-2.37,4.11-.44,8.16-.98,11.36-1.9,9.04-2.56,13.82-9.2,11.15-15.31h.01Z" style="fill:url(#linear-gradient);"/><path d="M153.33,49.97c.32-2.19.63-4.27.95-6.25,1.07-6.68,2.09-12.3,2.89-17.55-6.77.39-9.37,3.38-10.13,6.73-.22.97-.59,3.24-1,6.07-1.71.29-3.78.66-6.95,1.24,0-.06.01-.11.03-.17-.04.08-.1.15-.15.22.03.63-.06,1.28-.34,1.85.06.62-.07,1.24-.31,1.81.08.08.17.17.24.25,2.56-.52,4.92-.95,6.97-1.32-.1.79-.2,1.57-.28,2.37-.24,2.12-.46,4.27-.6,6.22-.52,6.67,2.16,11.6,10.24,11.57-2.64-2.22-2.53-6.47-1.57-13.05h.01Z" style="fill:url(#linear-gradient-2);"/><path d="M123.41,38.1c-5.98-1.47-7.46-7.37-3.82-11.42,3.5-3.86,12.77-3.3,23.06-4.16l.27,3.55c-7.53.79-15.29,1.14-18.55,2.37-5.06,1.92-6.19,7.6-.95,9.65Z" style="fill:url(#linear-gradient-3);"/><path d="M165.44,8.86c-.83,9.49-10.46,12.47-21.33,13.52-.49.04-.97.08-1.45.13l-.29-4.03c2.11-.25,4.09-.52,5.8-.86,9.17-1.77,14.41-4.62,17.27-8.76Z" style="fill:url(#linear-gradient-4);"/><path d="M154.89,63.01c-8.08.03-10.76-4.9-10.24-11.57.14-1.95.37-4.1.6-6.22l4.63-.77c-.1,1.32-.2,2.68-.35,4.07-1.12,10.31-.83,11.22,5.35,14.49Z" style="fill:url(#linear-gradient-5);"/><path d="M157.17,26.16c-.8,5.25-1.83,10.87-2.89,17.55l-4.38.73c.58-8.41.51-15.11,7.27-18.29Z" style="fill:url(#linear-gradient-6);"/><path d="M138.67,42.41c0,.52-.11,1.04-.31,1.53.07.07.15.15.22.24l6.97-1.32,4.65-2.75-11.53,2.32h0Z" style="fill:url(#linear-gradient-7);"/><path d="M61.54,65.57c1.19-.48,2.46-.73,3.75-.74,3.45.11,6.91.55,10.29,1.28l.88-2.44c-1.84-.51-3.69-.93-5.58-1.25-1.17-.24-2.36-.37-3.55-.37-3.61-.2-7.2.39-10.56,1.74-7.77,3.76-6.56,10.9,2.61,14.2,3.75,1.4,7.33,3.45,6.97,5.45-.58,3.29-1.64,5.03-6.42,5.29-3.79,0-11.75-.08-15.15-.08l-.55,2.39h13.99c3.82.13,7.63-.67,11.08-2.35,2.84-1.43,4.31-3.06,4.85-5.72.31-1.7-.1-3.44-1.12-4.83-1.56-2.28-6-3.3-10.13-5.43-3.26-1.63-5.29-5.72-1.35-7.15h-.01Z" style="fill:#0b58ad;"/><path d="M40.18,63.13l-5.14,24.55c-.44,1.8-.1,3.4,2.43,3.4h4c1.95-9.49,3.95-18.48,5.93-27.95,0,0-7.22,0-7.22,0Z" style="fill:#0b58ad;"/><polygon points="169.72 86.17 169.88 90.78 172.15 90.86 172.08 90.86 174.26 91.1 174.67 86.59 172.42 86.45 169.72 86.17" style="fill:#0b58ad;"/><path d="M175.03,60.22c-4.52-.52-4.34-.52-5.39-.52l.24,3.15c.13,1.71.91,17.43.77,19.42l3.79.44-.04-.06c.22-1.1,2.68-14.98,3.58-18.07l1.04-3.9c-.83,0-1.26-.22-4-.45h.01Z" style="fill:#0b58ad;"/><path d="M28.27,64.19c-1.53-.81-3.22-1.35-4.94-1.56-2.51-.39-5.04-.58-7.58-.55H5.55L.16,87.02c-.11.35-.17.72-.15,1.1.06,1.71,1.49,3.05,3.2,2.99h5.72c2.7,0,5.39-.17,8.08-.55,2.01-.29,3.96-.87,5.8-1.7,2.64-1.14,5-2.85,6.91-5,1.74-2.12,2.95-4.63,3.51-7.32.6-2.42.49-4.94-.34-7.29-.91-2.16-2.54-3.95-4.61-5.06ZM25.46,76.57c-.67,2.98-2.71,8.16-5.13,9.83-2.7,1.73-5.86,2.58-9.06,2.46h-3.75l5.17-24.6v.07h3.55c3.79,0,6.57.81,8.23,2.4,1.66,1.59,1.64,6.87.97,9.84h.01Z" style="fill:#0b58ad;"/><path d="M161.23,64.28h-22.78l-.04.08-.37,2.86h15.88l-15.93,14.82c-3.81,3.61-3.88,5-4.17,9.13h25.49v-2.6h-18.4l17.15-15.84c2.98-2.56,4-5.38,3.15-8.44h.01Z" style="fill:#0b58ad;"/><path d="M129.94,64.56c-.34,7.56-3.9,18.59-9.17,21.46-2.36,1.8-8.78,1.95-10.53-.56-.86-1.17-.2-3.97.34-6.61l2.6-14.03.15-.04c.25-1.03.59-2.74-3.02-2.86-4.49-.2-7.43-.2-12.48-.2-5.1-.17-10.1,1.31-14.3,4.2-3.71,2.32-6.29,6.05-7.15,10.35-.91,4.42.01,8.06,2.86,10.76s7.04,4.02,12.63,4.02c1.32,0,2.63-.1,3.93-.31.52-.04,2.91-.67,3.54-.8l.37-2.77h-.27c-1.78.46-3.61.76-5.46.88-13.29-.44-11.87-16.07-5.29-20.9,2.77-1.76,6-2.67,9.27-2.61,2.53-.1,5.07-.04,7.58.15l-2.74,14.3c-.72,3.96-.32,6.92,1.43,8.97s4.1,3.09,8.16,3.09c4.97,0,8.44-.95,11.31-3.45l-.22,1.19c.14-.06.28-.1.42-.1.11,0,.13.2.06.49.1-.04.18-.06.28-.07.81-1.42,1.83-2.79,2.7-3.13.79-1.15,1.64-2.05,2.35-2.05.04,0,.07.03.08.07.06-.17.13-.34.2-.48.11-.28.27-.55.41-.81.38-.67.76-1.26,1.22-1.9.22-.31.48-.63.73-.95l2.77-15.28h-4.75.01Z" style="fill:#0b58ad;"/><path d="M138.5,49.43c.08-.88.18-1.8.29-2.7.07-.93.14-1.85.27-2.82h-.04c.62-5.86,1.17-11.38,1.7-15.79-7.3.55-10.11,4.68-10.94,9.31-.39,2.22-.97,8.26-1.62,14.98-.72,7.37-1.52,15.56-2.28,20.42-1.43,9.28-4.02,14.94-7.92,17.61,3.09.39,10.74-.11,14.87-10.21,2.5-6.14,4.23-18.64,5.59-30.78.03,0,.06,0,.08-.01h-.01Z" style="fill:url(#linear-gradient-8);"/><path d="M128.15,52.43l5.25-4.1c-.28,3.79-.56,8.22-1.04,13.44-1.85,20.74-5.29,24.48-14.41,28.69,3.9-2.67,6.49-8.33,7.92-17.61.76-4.86,1.56-13.03,2.28-20.42Z" style="fill:url(#linear-gradient-9);"/><path d="M140.71,28.13c-.52,4.41-1.07,9.94-1.7,15.79l-5.62,4.41c.83-11.26,1.66-16.78,7.32-20.2Z" style="fill:url(#linear-gradient-10);"/><path d="M26.98,2.06c3.02,0,6.01.44,8.9,1.32,2.56.77,4.97,1.97,7.15,3.52,4.09,3.01,6.33,6.9,6.33,11.02,0,4.62-2.86,9.02-7.86,12.05l-1.66,1.03.97,1.73c.51.87.77,1.85.77,2.86-.07,2.02-1.08,3.9-2.72,5.08-2.06,1.54-4.56,2.36-7.15,2.33-2.57.03-5.08-.79-7.15-2.33-1.64-1.19-2.64-3.06-2.71-5.08v-.39l.13-1.76-1.71-.38c-4.24-.9-8.16-2.92-11.33-5.86-2.64-2.37-4.19-5.72-4.28-9.25,0-4.11,2.23-8.02,6.32-11.02,2.16-1.57,4.58-2.77,7.15-3.52,2.88-.88,5.87-1.32,8.88-1.32M26.99.03C13.43,0,2.47,8.03,2.47,17.92c0,8.05,7.22,14.84,17.15,17.15v.56c0,5.22,5.36,9.48,11.98,9.48s11.97-4.28,11.97-9.48c0-1.38-.35-2.74-1.04-3.93,5.41-3.29,8.85-8.23,8.85-13.79C51.37,8.03,40.43,0,26.99,0v.03ZM45.36,48.79c2.57,0,4.75,1.53,4.75,3.33s-2.18,3.33-4.75,3.33-4.73-1.53-4.73-3.33,2.16-3.33,4.73-3.33M45.36,46.74c-3.75,0-6.77,2.4-6.77,5.38s3.03,5.34,6.77,5.34,6.78-2.4,6.78-5.38-3.03-5.34-6.78-5.34Z" style="fill:#f4a62f;"/></g></svg>